<svg xmlns="http://www.w3.org/2000/svg" width="422" height="64" fill="none" viewBox="0 0 422 64">
    <g fill="#DDD" filter="url(#a)">
        <path d="M30.652 22.617h24.884c0 2.563-.107 4.89-.32 6.983-.213 2.093-.64 4.037-1.28 5.83-.895 2.521-2.11 4.764-3.645 6.728a21.933 21.933 0 0 1-5.438 4.87c-2.047 1.281-4.307 2.264-6.78 2.947-2.474.683-5.075 1.025-7.805 1.025-3.753 0-7.186-.62-10.3-1.858-3.07-1.239-5.714-2.969-7.931-5.19-2.218-2.264-3.945-4.954-5.182-8.073C5.618 32.72 5 29.237 5 25.436c0-3.759.597-7.197 1.791-10.315 1.237-3.161 2.964-5.852 5.182-8.073 2.26-2.221 4.968-3.951 8.124-5.19C23.253.619 26.77 0 30.652 0c5.032 0 9.446 1.09 13.242 3.268 3.795 2.178 6.802 5.552 9.02 10.123l-11.899 4.933c-1.109-2.648-2.559-4.549-4.35-5.702-1.748-1.153-3.753-1.73-6.013-1.73-1.877 0-3.582.363-5.118 1.09a10.903 10.903 0 0 0-3.966 3.01c-1.066 1.282-1.919 2.84-2.559 4.678-.597 1.836-.895 3.886-.895 6.15 0 2.05.256 3.951.767 5.703.555 1.75 1.365 3.267 2.431 4.549 1.066 1.281 2.389 2.285 3.966 3.01 1.578.684 3.412 1.026 5.502 1.026 1.237 0 2.43-.128 3.582-.384 1.152-.3 2.175-.748 3.07-1.346a7.847 7.847 0 0 0 2.304-2.434c.597-.983 1.002-2.179 1.215-3.589h-10.3v-9.738zM75.999 22.937h2.367c2.473 0 4.371-.512 5.693-1.538 1.322-1.025 1.983-2.498 1.983-4.42 0-1.922-.66-3.396-1.983-4.421-1.322-1.025-3.22-1.538-5.693-1.538h-2.367v11.917zm27.571 26.717H87.961L76 31.075v18.58H63.461V1.346h19.51c2.687 0 5.033.406 7.037 1.218 2.005.769 3.647 1.836 4.926 3.203a13.044 13.044 0 0 1 2.943 4.742c.682 1.794 1.023 3.716 1.023 5.766 0 3.673-.895 6.663-2.687 8.97-1.748 2.264-4.35 3.801-7.804 4.613l15.161 19.797zM118.879 25.5c0 1.922.362 3.695 1.087 5.318a13.443 13.443 0 0 0 2.943 4.229 13.842 13.842 0 0 0 4.286 2.819c1.663.64 3.412.96 5.245.96 1.834 0 3.561-.32 5.182-.96 1.663-.684 3.113-1.623 4.35-2.82a12.966 12.966 0 0 0 3.006-4.228c.725-1.623 1.088-3.396 1.088-5.318 0-1.922-.363-3.695-1.088-5.318a12.966 12.966 0 0 0-3.006-4.228 12.808 12.808 0 0 0-4.35-2.756c-1.621-.683-3.348-1.025-5.182-1.025-1.833 0-3.582.342-5.245 1.025a12.95 12.95 0 0 0-4.286 2.755 13.443 13.443 0 0 0-2.943 4.23c-.725 1.622-1.087 3.395-1.087 5.317zm-13.114 0c0-3.588.661-6.92 1.983-9.995 1.322-3.118 3.156-5.83 5.501-8.137 2.346-2.306 5.139-4.1 8.38-5.382C124.913.662 128.517 0 132.44 0c3.881 0 7.463.662 10.747 1.986 3.284 1.282 6.099 3.076 8.444 5.382 2.388 2.307 4.244 5.019 5.566 8.137 1.322 3.075 1.983 6.407 1.983 9.995 0 3.588-.661 6.941-1.983 10.059a24.637 24.637 0 0 1-5.566 8.073c-2.345 2.306-5.16 4.122-8.444 5.446C139.903 50.359 136.321 51 132.44 51c-3.923 0-7.527-.64-10.811-1.922-3.241-1.324-6.034-3.14-8.38-5.446a25.123 25.123 0 0 1-5.501-8.073c-1.322-3.118-1.983-6.471-1.983-10.059zM173.422 1.345l11.643 29.409 11.706-29.409h13.626l-20.342 48.31h-9.98l-20.278-48.31h13.625zM242.895 11.981H227.99v8.073h14.073V30.69H227.99v8.329h14.905v10.636h-27.443V1.344h27.443v10.636zM264.473 22.937h2.366c2.474 0 4.372-.512 5.694-1.538 1.322-1.025 1.983-2.498 1.983-4.42 0-1.922-.661-3.396-1.983-4.421-1.322-1.025-3.22-1.538-5.694-1.538h-2.366v11.917zm27.57 26.717h-15.608l-11.962-18.58v18.58h-12.539V1.346h19.511c2.687 0 5.033.406 7.037 1.218 2.004.769 3.646 1.836 4.926 3.203a13.034 13.034 0 0 1 2.942 4.742c.683 1.794 1.024 3.716 1.024 5.766 0 3.673-.896 6.663-2.687 8.97-1.749 2.264-4.35 3.801-7.804 4.613l15.16 19.797zM331.566 1.345V39.02h15.033v10.636h-27.571V1.344h12.538zM380.517 11.981h-14.905v8.073h14.074V30.69h-14.074v8.329h14.905v10.636h-27.443V1.344h27.443v10.636zM417 11.981h-14.905v8.073h14.073V30.69h-14.073v8.329H417v10.636h-27.443V1.344H417v10.636z"/>
    </g>
    <defs>
        <filter id="a" width="422" height="64" x="0" y="0" color-interpolation-filters="sRGB" filterUnits="userSpaceOnUse">
            <feFlood flood-opacity="0" result="BackgroundImageFix"/>
            <feColorMatrix in="SourceAlpha" values="0 0 0 0 0 0 0 0 0 0 0 0 0 0 0 0 0 0 127 0"/>
            <feOffset dy="8"/>
            <feGaussianBlur stdDeviation="2.5"/>
            <feColorMatrix values="0 0 0 0 0 0 0 0 0 0 0 0 0 0 0 0 0 0 0.2 0"/>
            <feBlend in2="BackgroundImageFix" mode="darken" result="effect1_dropShadow"/>
            <feBlend in="SourceGraphic" in2="effect1_dropShadow" result="shape"/>
        </filter>
    </defs>
</svg>
