<svg xmlns="http://www.w3.org/2000/svg" width="170" height="42" fill="none" viewBox="0 0 170 42">
    <path fill="#fff" d="M10.179 28.714c.965 0 1.755-.073 2.37-.219.643-.175 1.154-.393 1.535-.655.38-.292.643-.627.79-1.006.146-.378.219-.8.219-1.267 0-.99-.468-1.806-1.404-2.447-.936-.67-2.545-1.384-4.826-2.142a42.184 42.184 0 0 1-2.984-1.18 11.952 11.952 0 0 1-2.676-1.704 8.523 8.523 0 0 1-1.93-2.492c-.498-.99-.747-2.185-.747-3.583 0-1.399.264-2.652.79-3.759a8.024 8.024 0 0 1 2.238-2.884c.965-.787 2.135-1.384 3.51-1.792 1.375-.437 2.925-.656 4.65-.656 2.048 0 3.817.219 5.31.656 1.491.437 2.72.918 3.685 1.442l-1.975 5.376a17.08 17.08 0 0 0-2.852-1.137c-1.023-.35-2.266-.524-3.729-.524-1.638 0-2.822.233-3.554.7-.702.436-1.053 1.12-1.053 2.053 0 .554.132 1.02.395 1.399.264.379.63.728 1.097 1.049a14.76 14.76 0 0 0 1.667.83c.644.233 1.346.48 2.106.743 1.58.583 2.954 1.165 4.125 1.748 1.17.554 2.135 1.21 2.895 1.967a7.074 7.074 0 0 1 1.755 2.666c.38 1.02.57 2.258.57 3.715 0 2.826-.994 5.026-2.983 6.6-1.989 1.543-4.987 2.316-8.994 2.316-1.346 0-2.56-.088-3.642-.263a22.148 22.148 0 0 1-2.895-.568 18.206 18.206 0 0 1-2.15-.743A17.673 17.673 0 0 1 0 32.21l1.93-5.42c.907.496 2.019.948 3.335 1.356 1.345.378 2.983.568 4.914.568zM26.984 33.915V1.049L33.521 0v11.014c.44-.146.995-.277 1.668-.394a9.932 9.932 0 0 1 2.018-.218c1.872 0 3.422.262 4.65.786 1.258.496 2.253 1.21 2.984 2.142.76.932 1.287 2.04 1.58 3.321.321 1.282.482 2.71.482 4.283v12.98h-6.537V21.722c0-2.098-.278-3.584-.834-4.458-.526-.874-1.52-1.31-2.983-1.31-.585 0-1.141.057-1.667.174-.498.087-.951.19-1.36.306v17.482h-6.538zM51.724 22.595c0-2.04.307-3.817.92-5.332.644-1.544 1.478-2.826 2.502-3.846a10.369 10.369 0 0 1 3.51-2.316 11.268 11.268 0 0 1 4.124-.787c3.276 0 5.864 1.005 7.766 3.016 1.9 1.981 2.851 4.91 2.851 8.784 0 .38-.014.802-.043 1.268-.03.437-.059.83-.088 1.18h-14.83c.147 1.34.775 2.404 1.887 3.19 1.111.787 2.603 1.18 4.475 1.18 1.2 0 2.37-.102 3.51-.306 1.17-.233 2.12-.51 2.852-.83l.877 5.288c-.35.175-.819.35-1.404.525-.585.175-1.243.32-1.974.437-.702.145-1.463.262-2.282.35-.819.087-1.637.13-2.456.13-2.077 0-3.89-.305-5.44-.917-1.522-.612-2.794-1.443-3.818-2.491-.994-1.078-1.74-2.346-2.237-3.803-.468-1.457-.703-3.03-.703-4.72zm15.355-2.49a6.082 6.082 0 0 0-.307-1.618 3.6 3.6 0 0 0-.746-1.399 3.675 3.675 0 0 0-1.272-1.005c-.497-.262-1.126-.393-1.886-.393-.732 0-1.36.131-1.887.393a3.664 3.664 0 0 0-1.316.962 4.673 4.673 0 0 0-.834 1.442 10.033 10.033 0 0 0-.395 1.617h8.643zM92.35 16.695a34.651 34.651 0 0 0-2.062-.437 11.755 11.755 0 0 0-2.544-.262c-.41 0-.907.043-1.492.131-.556.058-.98.131-1.272.219v17.569h-6.538V12.15c1.17-.408 2.545-.787 4.125-1.136 1.608-.38 3.393-.569 5.352-.569.351 0 .775.03 1.273.088.497.029.994.087 1.491.175.497.058.995.145 1.492.262a6.1 6.1 0 0 1 1.272.35l-1.097 5.375zM111.738 22.595c0-2.01-.454-3.613-1.361-4.807-.906-1.224-2.252-1.836-4.036-1.836-.585 0-1.126.03-1.623.088-.498.029-.907.072-1.229.13v11.757c.41.262.936.48 1.58.656a7.99 7.99 0 0 0 2.018.262c3.1 0 4.651-2.083 4.651-6.25zm6.668-.175c0 1.778-.219 3.395-.658 4.852-.438 1.456-1.082 2.71-1.93 3.758a8.706 8.706 0 0 1-3.159 2.448c-1.258.582-2.706.874-4.344.874-.906 0-1.755-.088-2.544-.262a12.273 12.273 0 0 1-2.282-.744V42h-6.537V11.713a20.742 20.742 0 0 1 2.018-.481c.76-.175 1.55-.32 2.369-.437a37.701 37.701 0 0 1 2.545-.262 25.27 25.27 0 0 1 2.501-.131c1.901 0 3.598.291 5.089.874 1.492.553 2.75 1.355 3.773 2.404 1.024 1.02 1.799 2.272 2.326 3.758.556 1.486.833 3.147.833 4.982zM145.017 22.377c0 1.806-.263 3.467-.79 4.982-.526 1.486-1.287 2.768-2.281 3.846-.995 1.049-2.194 1.865-3.598 2.447-1.375.583-2.925.874-4.651.874-1.696 0-3.246-.29-4.65-.874a10.456 10.456 0 0 1-3.554-2.447c-.995-1.078-1.77-2.36-2.326-3.846-.555-1.515-.833-3.176-.833-4.982 0-1.807.278-3.453.833-4.939.585-1.486 1.375-2.753 2.37-3.802a10.935 10.935 0 0 1 3.597-2.448c1.404-.582 2.925-.874 4.563-.874 1.668 0 3.189.292 4.563.874 1.404.583 2.603 1.399 3.598 2.448.994 1.049 1.77 2.316 2.325 3.802.556 1.486.834 3.132.834 4.939zm-6.669 0c0-2.01-.409-3.584-1.228-4.72-.79-1.166-1.931-1.749-3.423-1.749-1.491 0-2.647.583-3.466 1.749-.819 1.136-1.228 2.71-1.228 4.72s.409 3.613 1.228 4.807c.819 1.166 1.975 1.748 3.466 1.748 1.492 0 2.633-.582 3.423-1.748.819-1.194 1.228-2.797 1.228-4.807zM150.081 11.713c1.111-.32 2.545-.612 4.3-.874a33.72 33.72 0 0 1 5.528-.437c1.96 0 3.583.262 4.87.786 1.316.496 2.355 1.21 3.115 2.142.761.932 1.302 2.04 1.623 3.321.322 1.282.483 2.71.483 4.283v12.98h-6.537V21.722c0-2.098-.278-3.584-.834-4.458-.556-.874-1.594-1.31-3.115-1.31-.468 0-.965.028-1.492.087-.526.029-.994.072-1.404.13v17.745h-6.537V11.713z"/>
</svg>
