<svg width="198" height="47" viewBox="0 0 198 47" fill="none" xmlns="http://www.w3.org/2000/svg">
<path d="M64.29 31.5365C65.0976 31.5365 65.7583 31.4753 66.2722 31.3529C66.8105 31.2061 67.2388 31.0226 67.5569 30.8023C67.875 30.5576 68.0953 30.2762 68.2176 29.9581C68.34 29.64 68.4011 29.2851 68.4011 28.8936C68.4011 28.0616 68.0096 27.3764 67.2265 26.8381C66.4435 26.2752 65.0976 25.6757 63.1888 25.0394C62.3568 24.7458 61.5248 24.4154 60.6928 24.0484C59.8608 23.6568 59.1144 23.1797 58.4537 22.6168C57.793 22.0295 57.2547 21.3321 56.8387 20.5246C56.4226 19.6926 56.2146 18.6893 56.2146 17.5146C56.2146 16.34 56.4349 15.2878 56.8754 14.3579C57.3158 13.4035 57.9398 12.596 58.7474 11.9353C59.5549 11.2746 60.5338 10.7729 61.6839 10.4303C62.834 10.0633 64.131 9.87973 65.5748 9.87973C67.2877 9.87973 68.7682 10.0633 70.0162 10.4303C71.2642 10.7974 72.292 11.2012 73.0996 11.6416L71.4478 16.1565C70.7381 15.7895 69.9428 15.4713 69.0619 15.2022C68.2054 14.9085 67.1654 14.7617 65.9418 14.7617C64.5715 14.7617 63.5804 14.9574 62.9686 15.349C62.3813 15.716 62.0877 16.2911 62.0877 17.0742C62.0877 17.5391 62.1978 17.9307 62.418 18.2488C62.6383 18.5669 62.9441 18.8605 63.3357 19.1297C63.7517 19.3744 64.2166 19.6069 64.7305 19.8271C65.2689 20.0229 65.8562 20.2309 66.4924 20.4512C67.8138 20.9406 68.964 21.43 69.9428 21.9194C70.9216 22.3844 71.7292 22.935 72.3654 23.5712C73.0261 24.2074 73.5156 24.9538 73.8337 25.8103C74.1518 26.6668 74.3109 27.7068 74.3109 28.9303C74.3109 31.304 73.4789 33.1515 71.8148 34.473C70.1508 35.7699 67.6425 36.4184 64.29 36.4184C63.1644 36.4184 62.1488 36.345 61.2434 36.1982C60.338 36.0758 59.5305 35.9168 58.8208 35.721C58.1356 35.5252 57.5361 35.3172 57.0222 35.097C56.5328 34.8767 56.1168 34.6687 55.7742 34.473L57.3892 29.9214C58.1478 30.3374 59.0777 30.7167 60.1789 31.0593C61.3046 31.3774 62.675 31.5365 64.29 31.5365Z" fill="#6759FE"/>
<path d="M78.3497 35.9045V8.30136L83.8189 7.42041V16.6704C84.186 16.548 84.651 16.4379 85.2138 16.34C85.8011 16.2177 86.3639 16.1565 86.9023 16.1565C88.4684 16.1565 89.7654 16.3768 90.7931 16.8172C91.8454 17.2332 92.6774 17.8328 93.2892 18.6158C93.9254 19.3989 94.3659 20.3288 94.6106 21.4055C94.8798 22.4822 95.0144 23.6813 95.0144 25.0027V35.9045H89.5451V25.6635C89.5451 23.9016 89.3127 22.6535 88.8477 21.9194C88.4072 21.1853 87.5752 20.8182 86.3517 20.8182C85.8623 20.8182 85.3973 20.8672 84.9568 20.965C84.5408 21.0385 84.1615 21.1241 83.8189 21.222V35.9045H78.3497Z" fill="#6759FE"/>
<path d="M99.0472 26.3976C99.0472 24.6846 99.3041 23.1919 99.818 21.9194C100.356 20.6225 101.054 19.5457 101.91 18.6893C102.767 17.8328 103.746 17.1843 104.847 16.7438C105.972 16.3033 107.123 16.0831 108.297 16.0831C111.038 16.0831 113.204 16.9273 114.794 18.6158C116.385 20.2799 117.18 22.7392 117.18 25.9938C117.18 26.3119 117.168 26.6668 117.143 27.0583C117.119 27.4254 117.094 27.7557 117.07 28.0494H104.663C104.786 29.175 105.312 30.0682 106.242 30.7289C107.172 31.3896 108.42 31.72 109.986 31.72C110.989 31.72 111.968 31.6343 112.922 31.4631C113.901 31.2673 114.696 31.0348 115.308 30.7656L116.042 35.2071C115.749 35.3539 115.357 35.5008 114.868 35.6476C114.378 35.7944 113.828 35.9168 113.216 36.0146C112.629 36.137 111.992 36.2349 111.307 36.3083C110.622 36.3817 109.937 36.4184 109.252 36.4184C107.514 36.4184 105.997 36.1615 104.7 35.6476C103.427 35.1337 102.363 34.4363 101.507 33.5553C100.675 32.6499 100.05 31.5854 99.6345 30.3619C99.243 29.1383 99.0472 27.8169 99.0472 26.3976ZM111.894 24.3053C111.87 23.8404 111.784 23.3877 111.637 22.9472C111.515 22.5067 111.307 22.1152 111.013 21.7726C110.744 21.43 110.389 21.1486 109.949 20.9283C109.533 20.7081 109.007 20.598 108.371 20.598C107.759 20.598 107.233 20.7081 106.792 20.9283C106.352 21.1241 105.985 21.3933 105.691 21.7359C105.397 22.0785 105.165 22.4822 104.994 22.9472C104.847 23.3877 104.737 23.8404 104.663 24.3053H111.894Z" fill="#6759FE"/>
<path d="M133.037 21.4422C132.547 21.3199 131.972 21.1975 131.311 21.0752C130.651 20.9283 129.941 20.8549 129.183 20.8549C128.84 20.8549 128.424 20.8916 127.935 20.965C127.47 21.014 127.115 21.0752 126.87 21.1486V35.9045H121.401V17.6248C122.38 17.2822 123.53 16.9641 124.851 16.6704C126.197 16.3523 127.69 16.1932 129.329 16.1932C129.623 16.1932 129.978 16.2177 130.394 16.2666C130.81 16.2911 131.226 16.34 131.642 16.4135C132.058 16.4624 132.474 16.5358 132.89 16.6337C133.306 16.7071 133.661 16.805 133.954 16.9273L133.037 21.4422Z" fill="#6759FE"/>
<path d="M149.256 26.3976C149.256 24.7091 148.877 23.3632 148.118 22.3599C147.36 21.3321 146.234 20.8182 144.741 20.8182C144.252 20.8182 143.799 20.8427 143.383 20.8916C142.967 20.9161 142.625 20.9528 142.355 21.0018V30.8758C142.698 31.096 143.139 31.2795 143.677 31.4263C144.24 31.5732 144.803 31.6466 145.365 31.6466C147.959 31.6466 149.256 29.8969 149.256 26.3976ZM154.836 26.2508C154.836 27.7435 154.652 29.1016 154.285 30.3252C153.918 31.5487 153.38 32.601 152.67 33.4819C151.96 34.3629 151.079 35.048 150.027 35.5375C148.975 36.0269 147.764 36.2716 146.393 36.2716C145.635 36.2716 144.925 36.1982 144.264 36.0513C143.604 35.9045 142.967 35.6965 142.355 35.4273V42.6952H136.886V17.2577C137.376 17.1109 137.938 16.9763 138.575 16.8539C139.211 16.7071 139.872 16.5848 140.557 16.4869C141.267 16.389 141.976 16.3156 142.686 16.2666C143.42 16.1932 144.117 16.1565 144.778 16.1565C146.369 16.1565 147.788 16.4012 149.036 16.8906C150.284 17.3556 151.336 18.0285 152.193 18.9095C153.049 19.766 153.698 20.8182 154.138 22.0662C154.603 23.3142 154.836 24.7091 154.836 26.2508Z" fill="#6759FE"/>
<path d="M177.099 26.2141C177.099 27.7312 176.878 29.1261 176.438 30.3986C175.997 31.6466 175.361 32.7233 174.529 33.6287C173.697 34.5097 172.694 35.1949 171.519 35.6843C170.369 36.1737 169.072 36.4184 167.628 36.4184C166.209 36.4184 164.912 36.1737 163.737 35.6843C162.587 35.1949 161.596 34.5097 160.764 33.6287C159.932 32.7233 159.284 31.6466 158.819 30.3986C158.354 29.1261 158.121 27.7312 158.121 26.2141C158.121 24.6969 158.354 23.3142 158.819 22.0662C159.308 20.8182 159.969 19.7537 160.801 18.8728C161.657 17.9918 162.661 17.3066 163.811 16.8172C164.986 16.3278 166.258 16.0831 167.628 16.0831C169.023 16.0831 170.296 16.3278 171.446 16.8172C172.62 17.3066 173.624 17.9918 174.456 18.8728C175.288 19.7537 175.936 20.8182 176.401 22.0662C176.866 23.3142 177.099 24.6969 177.099 26.2141ZM171.519 26.2141C171.519 24.5256 171.177 23.2041 170.491 22.2498C169.831 21.2709 168.876 20.7815 167.628 20.7815C166.38 20.7815 165.414 21.2709 164.729 22.2498C164.043 23.2041 163.701 24.5256 163.701 26.2141C163.701 27.9025 164.043 29.2484 164.729 30.2517C165.414 31.2306 166.38 31.72 167.628 31.72C168.876 31.72 169.831 31.2306 170.491 30.2517C171.177 29.2484 171.519 27.9025 171.519 26.2141Z" fill="#6759FE"/>
<path d="M181.335 17.2577C182.265 16.9885 183.464 16.7438 184.933 16.5236C186.401 16.2789 187.942 16.1565 189.558 16.1565C191.197 16.1565 192.555 16.3768 193.632 16.8172C194.733 17.2332 195.602 17.8328 196.238 18.6158C196.874 19.3989 197.327 20.3288 197.596 21.4055C197.865 22.4822 198 23.6813 198 25.0027V35.9045H192.531V25.6635C192.531 23.9016 192.298 22.6535 191.833 21.9194C191.368 21.1853 190.5 20.8182 189.227 20.8182C188.836 20.8182 188.42 20.8427 187.979 20.8916C187.539 20.9161 187.147 20.9528 186.805 21.0018V35.9045H181.335V17.2577Z" fill="#6759FE"/>
<mask id="mask0" mask-type="alpha" maskUnits="userSpaceOnUse" x="0" y="0" width="47" height="47">
<circle cx="23.0751" cy="23.0751" r="23.0751" fill="#C4C4C4"/>
</mask>
<g mask="url(#mask0)">
<circle cx="23.1587" cy="23.1588" r="23.0751" fill="url(#paint0_linear)"/>
<circle cx="23.2869" cy="23.287" r="8.33267" fill="white"/>
<mask id="mask1" mask-type="alpha" maskUnits="userSpaceOnUse" x="0" y="0" width="47" height="47">
<circle cx="23.1587" cy="23.1591" r="23.0751" fill="url(#paint1_linear)"/>
</mask>
<g mask="url(#mask1)">
<circle cx="36.6542" cy="20.4332" r="2.4357" transform="rotate(39.4662 36.6542 20.4332)" fill="#BDF7FF"/>
<circle cx="25.8546" cy="6.72589" r="1.28195" transform="rotate(39.4662 25.8546 6.72589)" fill="#D9D9D9"/>
<circle cx="8.60942" cy="29.8895" r="1.41014" transform="rotate(39.4662 8.60942 29.8895)" fill="#D7DAD7"/>
<rect x="30.8411" y="39.3928" width="5.38419" height="5.38419" transform="rotate(39.4662 30.8411 39.3928)" fill="#BCC8FF"/>
<rect x="7.64429" y="13.9187" width="5.89697" height="2.30751" transform="rotate(22.2603 7.64429 13.9187)" fill="#FCC7A0"/>
<path d="M31.1894 11.6446L34.2171 6.39552L37.1708 10.6735L31.1894 11.6446Z" fill="#EDBBFF"/>
<path d="M21.4436 37.1862L14.9839 39.2923L16.1272 32.9555L21.4436 37.1862Z" fill="#F4C09F"/>
</g>
</g>
<defs>
<linearGradient id="paint0_linear" x1="23.1587" y1="0.0837402" x2="23.1587" y2="46.2339" gradientUnits="userSpaceOnUse">
<stop stop-color="#766AFA"/>
<stop offset="1" stop-color="#5F51FF"/>
</linearGradient>
<linearGradient id="paint1_linear" x1="23.1587" y1="0.0839844" x2="23.1587" y2="46.2342" gradientUnits="userSpaceOnUse">
<stop stop-color="#F473B3"/>
<stop offset="1" stop-color="#CC77DD"/>
</linearGradient>
</defs>
</svg>
