<svg width="198" height="46" viewBox="0 0 198 46" fill="none" xmlns="http://www.w3.org/2000/svg">
<mask id="mask0" mask-type="alpha" maskUnits="userSpaceOnUse" x="-1" y="-1" width="47" height="47">
<circle cx="22.8799" cy="22.8799" r="22.9632" fill="#C4C4C4"/>
</mask>
<g mask="url(#mask0)">
<path fill-rule="evenodd" clip-rule="evenodd" d="M22.9632 45.9263C35.6454 45.9263 45.9263 35.6454 45.9263 22.9632C45.9263 10.281 35.6454 0 22.9632 0C10.281 0 0 10.281 0 22.9632C0 35.6454 10.281 45.9263 22.9632 45.9263ZM23.0908 31.3833C27.6704 31.3833 31.383 27.6707 31.383 23.091C31.383 18.5113 27.6704 14.7988 23.0908 14.7988C18.5111 14.7988 14.7985 18.5113 14.7985 23.091C14.7985 27.6707 18.5111 31.3833 23.0908 31.3833Z" fill="url(#paint0_linear)"/>
<mask id="mask1" mask-type="alpha" maskUnits="userSpaceOnUse" x="-1" y="0" width="47" height="46">
<circle cx="22.963" cy="22.9632" r="22.9632" fill="url(#paint1_linear)"/>
</mask>
<g mask="url(#mask1)">
<circle cx="36.393" cy="20.2505" r="2.42389" transform="rotate(39.4662 36.393 20.2505)" fill="#BDF7FF"/>
<circle cx="25.6459" cy="6.60978" r="1.27573" transform="rotate(39.4662 25.6459 6.60978)" fill="#D9D9D9"/>
<circle cx="8.48442" cy="29.6613" r="1.4033" transform="rotate(39.4662 8.48442 29.6613)" fill="#D7DAD7"/>
<rect x="30.6081" y="39.1183" width="5.35807" height="5.35807" transform="rotate(39.4662 30.6081 39.1183)" fill="#BCC8FF"/>
<rect x="7.52392" y="13.7678" width="5.86836" height="2.29632" transform="rotate(22.2603 7.52392 13.7678)" fill="#FCC7A0"/>
<path d="M30.9549 11.5045L33.9678 6.28087L36.9072 10.5381L30.9549 11.5045Z" fill="#EDBBFF"/>
<path d="M21.2562 36.9222L14.8279 39.0181L15.9655 32.712L21.2562 36.9222Z" fill="#F4C09F"/>
</g>
</g>
<path d="M64.1635 31.2649C64.9718 31.2649 65.6332 31.2037 66.1476 31.0812C66.6864 30.9342 67.1151 30.7505 67.4335 30.5301C67.7519 30.2852 67.9724 30.0035 68.0948 29.6851C68.2173 29.3666 68.2785 29.0115 68.2785 28.6196C68.2785 27.7868 67.8866 27.1009 67.1028 26.5621C66.319 25.9987 64.9718 25.3986 63.0613 24.7618C62.2285 24.4678 61.3957 24.1372 60.5629 23.7697C59.7301 23.3778 58.9831 22.9002 58.3217 22.3368C57.6604 21.749 57.1215 21.0509 56.7051 20.2426C56.2887 19.4098 56.0805 18.4055 56.0805 17.2298C56.0805 16.0541 56.301 15.0009 56.7418 14.0701C57.1827 13.1148 57.8073 12.3065 58.6156 11.6452C59.4239 10.9839 60.4037 10.4817 61.5549 10.1388C62.7061 9.7714 64.0043 9.58769 65.4495 9.58769C67.1641 9.58769 68.6459 9.7714 69.8951 10.1388C71.1443 10.5062 72.1731 10.9104 72.9814 11.3513L71.328 15.8704C70.6177 15.503 69.8217 15.1846 68.9399 14.9151C68.0826 14.6212 67.0416 14.4743 65.8169 14.4743C64.4452 14.4743 63.4532 14.6702 62.8409 15.0621C62.253 15.4295 61.9591 16.0051 61.9591 16.7889C61.9591 17.2543 62.0693 17.6462 62.2897 17.9647C62.5102 18.2831 62.8164 18.577 63.2083 18.8464C63.6247 19.0914 64.0901 19.3241 64.6044 19.5445C65.1433 19.7405 65.7312 19.9487 66.368 20.1691C67.6907 20.659 68.8419 21.1489 69.8217 21.6388C70.8014 22.1041 71.6097 22.6553 72.2466 23.2921C72.9079 23.929 73.3978 24.676 73.7162 25.5333C74.0346 26.3906 74.1938 27.4316 74.1938 28.6563C74.1938 31.0322 73.3611 32.8815 71.6955 34.2042C70.0299 35.5024 67.5192 36.1515 64.1635 36.1515C63.0368 36.1515 62.0203 36.078 61.114 35.931C60.2078 35.8086 59.3994 35.6494 58.6891 35.4534C58.0033 35.2574 57.4032 35.0492 56.8888 34.8288C56.3989 34.6084 55.9825 34.4002 55.6396 34.2042L57.2562 29.6483C58.0155 30.0647 58.9463 30.4444 60.0485 30.7873C61.1753 31.1057 62.5469 31.2649 64.1635 31.2649Z" fill="#47439E"/>
<path d="M78.2365 35.6371V8.00783L83.7109 7.12604V16.3848C84.0783 16.2623 84.5437 16.1521 85.1071 16.0541C85.6949 15.9316 86.2583 15.8704 86.7972 15.8704C88.3648 15.8704 89.663 16.0909 90.6917 16.5318C91.745 16.9482 92.5778 17.5483 93.1901 18.3321C93.827 19.1159 94.2679 20.0466 94.5128 21.1244C94.7822 22.2021 94.9169 23.4023 94.9169 24.725V35.6371H89.4425V25.3863C89.4425 23.6228 89.2098 22.3736 88.7445 21.6388C88.3036 20.9039 87.4708 20.5365 86.2461 20.5365C85.7562 20.5365 85.2908 20.5855 84.8499 20.6835C84.4335 20.757 84.0538 20.8427 83.7109 20.9407V35.6371H78.2365Z" fill="#47439E"/>
<path d="M98.9536 26.1212C98.9536 24.4066 99.2108 22.9125 99.7251 21.6388C100.264 20.3406 100.962 19.2628 101.819 18.4055C102.677 17.5483 103.656 16.8992 104.759 16.4583C105.885 16.0174 107.037 15.7969 108.212 15.7969C110.956 15.7969 113.123 16.642 114.715 18.3321C116.308 19.9977 117.104 22.4593 117.104 25.717C117.104 26.0354 117.091 26.3906 117.067 26.7825C117.042 27.1499 117.018 27.4806 116.993 27.7745H104.575C104.697 28.9012 105.224 29.7953 106.155 30.4566C107.086 31.118 108.335 31.4486 109.902 31.4486C110.907 31.4486 111.886 31.3629 112.842 31.1914C113.821 30.9955 114.618 30.7628 115.23 30.4934L115.965 34.939C115.671 35.086 115.279 35.233 114.789 35.3799C114.299 35.5269 113.748 35.6494 113.136 35.7473C112.548 35.8698 111.911 35.9678 111.225 36.0413C110.539 36.1147 109.853 36.1515 109.168 36.1515C107.429 36.1515 105.91 35.8943 104.612 35.3799C103.338 34.8655 102.273 34.1675 101.415 33.2857C100.582 32.3794 99.9578 31.3139 99.5414 30.0892C99.1495 28.8645 98.9536 27.5418 98.9536 26.1212ZM111.813 24.0269C111.788 23.5615 111.703 23.1084 111.556 22.6675C111.433 22.2266 111.225 21.8347 110.931 21.4918C110.662 21.1489 110.307 20.8672 109.866 20.6468C109.449 20.4263 108.923 20.3161 108.286 20.3161C107.673 20.3161 107.147 20.4263 106.706 20.6468C106.265 20.8427 105.898 21.1121 105.604 21.4551C105.31 21.798 105.077 22.2021 104.906 22.6675C104.759 23.1084 104.648 23.5615 104.575 24.0269H111.813Z" fill="#47439E"/>
<path d="M132.975 21.1611C132.485 21.0387 131.91 20.9162 131.248 20.7937C130.587 20.6468 129.877 20.5733 129.117 20.5733C128.775 20.5733 128.358 20.61 127.868 20.6835C127.403 20.7325 127.048 20.7937 126.803 20.8672V35.6371H121.328V17.3401C122.308 16.9971 123.459 16.6787 124.782 16.3848C126.129 16.0664 127.623 15.9072 129.264 15.9072C129.558 15.9072 129.913 15.9317 130.33 15.9806C130.746 16.0051 131.163 16.0541 131.579 16.1276C131.995 16.1766 132.412 16.2501 132.828 16.348C133.245 16.4215 133.6 16.5195 133.894 16.642L132.975 21.1611Z" fill="#47439E"/>
<path d="M149.21 26.1212C149.21 24.4311 148.831 23.0839 148.071 22.0797C147.312 21.0509 146.185 20.5365 144.691 20.5365C144.201 20.5365 143.748 20.561 143.332 20.61C142.915 20.6345 142.572 20.6712 142.303 20.7202V30.6036C142.646 30.824 143.087 31.0077 143.626 31.1547C144.189 31.3017 144.752 31.3751 145.316 31.3751C147.912 31.3751 149.21 29.6238 149.21 26.1212ZM154.795 25.9742C154.795 27.4683 154.611 28.8278 154.244 30.0525C153.876 31.2772 153.337 32.3304 152.627 33.2122C151.917 34.094 151.035 34.7798 149.982 35.2697C148.929 35.7596 147.716 36.0045 146.344 36.0045C145.585 36.0045 144.875 35.931 144.213 35.7841C143.552 35.6371 142.915 35.4289 142.303 35.1595V42.4342H136.828V16.9726C137.318 16.8257 137.882 16.691 138.519 16.5685C139.155 16.4215 139.817 16.2991 140.503 16.2011C141.213 16.1031 141.923 16.0296 142.634 15.9806C143.368 15.9072 144.066 15.8704 144.728 15.8704C146.32 15.8704 147.741 16.1154 148.99 16.6052C150.239 17.0706 151.292 17.7442 152.149 18.626C153.007 19.4833 153.656 20.5365 154.097 21.7857C154.562 23.0349 154.795 24.4311 154.795 25.9742Z" fill="#47439E"/>
<path d="M177.079 25.9375C177.079 27.4561 176.858 28.8523 176.418 30.1259C175.977 31.3751 175.34 32.4529 174.507 33.3592C173.674 34.2409 172.67 34.9268 171.494 35.4167C170.343 35.9065 169.045 36.1515 167.6 36.1515C166.179 36.1515 164.881 35.9065 163.705 35.4167C162.554 34.9268 161.562 34.2409 160.729 33.3592C159.896 32.4529 159.247 31.3751 158.782 30.1259C158.316 28.8523 158.084 27.4561 158.084 25.9375C158.084 24.4188 158.316 23.0349 158.782 21.7857C159.272 20.5365 159.933 19.471 160.766 18.5893C161.623 17.7075 162.627 17.0216 163.779 16.5318C164.954 16.0419 166.228 15.7969 167.6 15.7969C168.996 15.7969 170.27 16.0419 171.421 16.5318C172.596 17.0216 173.601 17.7075 174.433 18.5893C175.266 19.471 175.915 20.5365 176.381 21.7857C176.846 23.0349 177.079 24.4188 177.079 25.9375ZM171.494 25.9375C171.494 24.2474 171.151 22.9247 170.465 21.9694C169.804 20.9897 168.849 20.4998 167.6 20.4998C166.35 20.4998 165.383 20.9897 164.697 21.9694C164.011 22.9247 163.668 24.2474 163.668 25.9375C163.668 27.6276 164.011 28.9747 164.697 29.979C165.383 30.9587 166.35 31.4486 167.6 31.4486C168.849 31.4486 169.804 30.9587 170.465 29.979C171.151 28.9747 171.494 27.6276 171.494 25.9375Z" fill="#47439E"/>
<path d="M181.32 16.9726C182.25 16.7032 183.451 16.4583 184.92 16.2378C186.39 15.9929 187.933 15.8704 189.55 15.8704C191.191 15.8704 192.55 16.0909 193.628 16.5318C194.73 16.9482 195.6 17.5483 196.236 18.3321C196.873 19.1159 197.326 20.0466 197.596 21.1244C197.865 22.2021 198 23.4023 198 24.725V35.6371H192.526V25.3863C192.526 23.6228 192.293 22.3736 191.827 21.6388C191.362 20.9039 190.493 20.5365 189.219 20.5365C188.827 20.5365 188.411 20.561 187.97 20.61C187.529 20.6345 187.137 20.6712 186.794 20.7202V35.6371H181.32V16.9726Z" fill="#47439E"/>
<defs>
<linearGradient id="paint0_linear" x1="22.9632" y1="0" x2="22.9632" y2="45.9263" gradientUnits="userSpaceOnUse">
<stop stop-color="#F473B3"/>
<stop offset="1" stop-color="#CC77DD"/>
</linearGradient>
<linearGradient id="paint1_linear" x1="22.963" y1="0" x2="22.963" y2="45.9263" gradientUnits="userSpaceOnUse">
<stop stop-color="#F473B3"/>
<stop offset="1" stop-color="#CC77DD"/>
</linearGradient>
</defs>
</svg>
