<svg width="131" height="39" viewBox="0 0 131 39" fill="none" xmlns="http://www.w3.org/2000/svg">
<path d="M37.7616 18.1255C37.7616 24.6205 31.1155 38.0636 21.4486 38.0636C11.7816 38.0636 0 29.7561 0 22.0527C0 14.3494 11.7816 0 21.4486 0C30.0582 0 37.7616 12.8389 37.7616 18.1255Z" fill="white"/>
<mask id="mask0" mask-type="alpha" maskUnits="userSpaceOnUse" x="6" y="6" width="28" height="28">
<circle cx="19.9382" cy="19.6359" r="13.5942" fill="#C4C4C4"/>
</mask>
<g mask="url(#mask0)">
<path fill-rule="evenodd" clip-rule="evenodd" d="M19.9878 33.2796C27.4957 33.2796 33.582 27.1933 33.582 19.6855C33.582 12.1776 27.4957 6.09131 19.9878 6.09131C12.48 6.09131 6.39368 12.1776 6.39368 19.6855C6.39368 27.1933 12.48 33.2796 19.9878 33.2796ZM20.063 24.6695C22.7741 24.6695 24.972 22.4717 24.972 19.7605C24.972 17.0493 22.7741 14.8515 20.063 14.8515C17.3518 14.8515 15.1539 17.0493 15.1539 19.7605C15.1539 22.4717 17.3518 24.6695 20.063 24.6695Z" fill="url(#paint0_linear)"/>
<mask id="mask1" mask-type="alpha" maskUnits="userSpaceOnUse" x="6" y="6" width="28" height="28">
<circle cx="19.9875" cy="19.6852" r="13.5942" fill="url(#paint1_linear)"/>
</mask>
<g mask="url(#mask1)">
<circle cx="27.938" cy="18.0794" r="1.43494" transform="rotate(39.4662 27.938 18.0794)" fill="#BDF7FF"/>
<circle cx="21.5757" cy="10.0042" r="0.755231" transform="rotate(39.4662 21.5757 10.0042)" fill="#D9D9D9"/>
<circle cx="11.416" cy="23.6506" r="0.830754" transform="rotate(39.4662 11.416 23.6506)" fill="#D7DAD7"/>
<rect x="24.5133" y="29.249" width="3.17197" height="3.17197" transform="rotate(39.4662 24.5133 29.249)" fill="#BCC8FF"/>
<rect x="10.8475" y="14.2415" width="3.47406" height="1.35942" transform="rotate(22.2603 10.8475 14.2415)" fill="#FCC7A0"/>
<path d="M24.7186 12.9019L26.5023 9.80947L28.2424 12.3297L24.7186 12.9019Z" fill="#EDBBFF"/>
<path d="M18.977 27.9491L15.1714 29.1899L15.8449 25.4567L18.977 27.9491Z" fill="#F4C09F"/>
</g>
</g>
<path d="M51.7689 24.6C52.2474 24.6 52.639 24.5637 52.9435 24.4912C53.2625 24.4042 53.5162 24.2955 53.7047 24.165C53.8932 24.02 54.0237 23.8532 54.0963 23.6647C54.1688 23.4762 54.205 23.266 54.205 23.0339C54.205 22.5409 53.973 22.1349 53.509 21.8159C53.045 21.4824 52.2474 21.1271 51.1164 20.7501C50.6234 20.5761 50.1304 20.3804 49.6374 20.1629C49.1444 19.9309 48.7021 19.6481 48.3106 19.3146C47.9191 18.9666 47.6001 18.5533 47.3535 18.0748C47.107 17.5818 46.9838 16.9873 46.9838 16.2912C46.9838 15.5952 47.1143 14.9717 47.3753 14.4207C47.6363 13.8552 48.0061 13.3767 48.4846 12.9851C48.9631 12.5936 49.5431 12.2964 50.2246 12.0934C50.9062 11.8759 51.6747 11.7671 52.5302 11.7671C53.5452 11.7671 54.4225 11.8759 55.162 12.0934C55.9016 12.3109 56.5106 12.5501 56.9891 12.8111L56.0103 15.4865C55.5898 15.269 55.1185 15.0805 54.5965 14.921C54.089 14.7469 53.4727 14.6599 52.7477 14.6599C51.9357 14.6599 51.3484 14.7759 50.9859 15.008C50.6379 15.2255 50.4639 15.5662 50.4639 16.0302C50.4639 16.3057 50.5291 16.5378 50.6596 16.7263C50.7902 16.9148 50.9714 17.0888 51.2034 17.2483C51.4499 17.3933 51.7254 17.531 52.0299 17.6615C52.3489 17.7775 52.697 17.9008 53.074 18.0313C53.857 18.3213 54.5385 18.6113 55.1185 18.9013C55.6985 19.1768 56.1771 19.5031 56.5541 19.8801C56.9456 20.2571 57.2356 20.6994 57.4241 21.2069C57.6126 21.7144 57.7069 22.3307 57.7069 23.0557C57.7069 24.4622 57.2138 25.557 56.2278 26.34C55.2418 27.1086 53.7555 27.4928 51.7689 27.4928C51.1019 27.4928 50.5001 27.4493 49.9636 27.3623C49.4271 27.2898 48.9486 27.1956 48.5281 27.0796C48.1221 26.9636 47.7668 26.8403 47.4623 26.7098C47.1723 26.5793 46.9258 26.4561 46.7228 26.34L47.6798 23.643C48.1293 23.8895 48.6803 24.1142 49.3329 24.3172C49.9999 24.5057 50.8119 24.6 51.7689 24.6Z" fill="white"/>
<path d="M60.1001 27.1883V10.8318L63.341 10.3098V15.791C63.5585 15.7185 63.834 15.6532 64.1675 15.5952C64.5155 15.5227 64.849 15.4865 65.168 15.4865C66.096 15.4865 66.8646 15.617 67.4736 15.878C68.0971 16.1245 68.5901 16.4798 68.9526 16.9438C69.3296 17.4078 69.5906 17.9588 69.7357 18.5968C69.8952 19.2348 69.9749 19.9454 69.9749 20.7284V27.1883H66.7341V21.1199C66.7341 20.0759 66.5963 19.3363 66.3208 18.9013C66.0598 18.4663 65.5668 18.2488 64.8418 18.2488C64.5517 18.2488 64.2762 18.2778 64.0152 18.3358C63.7687 18.3793 63.544 18.4301 63.341 18.4881V27.1883H60.1001Z" fill="white"/>
<path d="M72.3646 21.5549C72.3646 20.5399 72.5168 19.6553 72.8214 18.9013C73.1404 18.1328 73.5536 17.4948 74.0611 16.9873C74.5687 16.4798 75.1487 16.0955 75.8012 15.8345C76.4682 15.5735 77.1497 15.443 77.8458 15.443C79.4698 15.443 80.7531 15.9432 81.6956 16.9438C82.6382 17.9298 83.1094 19.3871 83.1094 21.3156C83.1094 21.5042 83.1022 21.7144 83.0877 21.9464C83.0732 22.1639 83.0587 22.3597 83.0442 22.5337H75.6924C75.7649 23.2007 76.0767 23.73 76.6277 24.1215C77.1787 24.513 77.9183 24.7087 78.8463 24.7087C79.4408 24.7087 80.0208 24.658 80.5863 24.5565C81.1664 24.4405 81.6376 24.3027 82.0001 24.1432L82.4351 26.7751C82.2611 26.8621 82.0291 26.9491 81.7391 27.0361C81.4491 27.1231 81.1229 27.1956 80.7603 27.2536C80.4123 27.3261 80.0353 27.3841 79.6293 27.4276C79.2233 27.4711 78.8173 27.4928 78.4113 27.4928C77.3817 27.4928 76.4827 27.3406 75.7142 27.0361C74.9602 26.7316 74.3294 26.3183 73.8219 25.7963C73.3289 25.2598 72.9591 24.629 72.7126 23.904C72.4806 23.179 72.3646 22.3959 72.3646 21.5549ZM79.9773 20.3151C79.9628 20.0396 79.9121 19.7714 79.8251 19.5103C79.7526 19.2493 79.6293 19.0173 79.4553 18.8143C79.2958 18.6113 79.0855 18.4446 78.8245 18.3141C78.578 18.1836 78.2663 18.1183 77.8893 18.1183C77.5267 18.1183 77.215 18.1836 76.954 18.3141C76.693 18.4301 76.4755 18.5896 76.3015 18.7926C76.1275 18.9956 75.9897 19.2348 75.8882 19.5103C75.8012 19.7714 75.7359 20.0396 75.6924 20.3151H79.9773Z" fill="white"/>
<path d="M92.5054 18.6186C92.2153 18.5461 91.8746 18.4736 91.4831 18.4011C91.0916 18.3141 90.6711 18.2706 90.2215 18.2706C90.0185 18.2706 89.772 18.2923 89.482 18.3358C89.2065 18.3648 88.9963 18.4011 88.8512 18.4446V27.1883H85.6104V16.3565C86.1904 16.1535 86.8719 15.965 87.655 15.791C88.4525 15.6025 89.337 15.5082 90.3085 15.5082C90.4825 15.5082 90.6928 15.5227 90.9393 15.5517C91.1858 15.5662 91.4323 15.5952 91.6788 15.6387C91.9253 15.6677 92.1718 15.7112 92.4184 15.7692C92.6649 15.8127 92.8751 15.8707 93.0491 15.9432L92.5054 18.6186Z" fill="white"/>
<path d="M102.116 21.5549C102.116 20.5544 101.892 19.7569 101.442 19.1623C100.993 18.5533 100.326 18.2488 99.4411 18.2488C99.1511 18.2488 98.8828 18.2633 98.6363 18.2923C98.3898 18.3068 98.1868 18.3286 98.0273 18.3576V24.2085C98.2303 24.339 98.4913 24.4477 98.8103 24.5347C99.1438 24.6217 99.4773 24.6652 99.8109 24.6652C101.348 24.6652 102.116 23.6285 102.116 21.5549ZM105.423 21.4679C105.423 22.3524 105.314 23.1572 105.096 23.8822C104.879 24.6072 104.56 25.2308 104.139 25.7528C103.719 26.2748 103.197 26.6808 102.573 26.9708C101.95 27.2608 101.232 27.4058 100.42 27.4058C99.9704 27.4058 99.5499 27.3623 99.1583 27.2753C98.7668 27.1883 98.3898 27.0651 98.0273 26.9056V31.2122H94.7865V16.139C95.0765 16.052 95.41 15.9722 95.787 15.8997C96.164 15.8127 96.5555 15.7402 96.9615 15.6822C97.382 15.6242 97.8025 15.5807 98.2231 15.5517C98.6581 15.5082 99.0713 15.4865 99.4628 15.4865C100.405 15.4865 101.246 15.6315 101.986 15.9215C102.725 16.197 103.349 16.5958 103.856 17.1178C104.364 17.6253 104.748 18.2488 105.009 18.9883C105.285 19.7278 105.423 20.5544 105.423 21.4679Z" fill="white"/>
<path d="M118.615 21.4462C118.615 22.3452 118.484 23.1717 118.223 23.9257C117.962 24.6652 117.585 25.3033 117.092 25.8398C116.599 26.3618 116.005 26.7678 115.309 27.0578C114.627 27.3478 113.858 27.4928 113.003 27.4928C112.162 27.4928 111.393 27.3478 110.697 27.0578C110.016 26.7678 109.429 26.3618 108.936 25.8398C108.443 25.3033 108.058 24.6652 107.783 23.9257C107.507 23.1717 107.37 22.3452 107.37 21.4462C107.37 20.5471 107.507 19.7278 107.783 18.9883C108.073 18.2488 108.464 17.618 108.957 17.096C109.465 16.574 110.059 16.168 110.741 15.878C111.437 15.588 112.191 15.443 113.003 15.443C113.829 15.443 114.584 15.588 115.265 15.878C115.961 16.168 116.556 16.574 117.049 17.096C117.542 17.618 117.926 18.2488 118.201 18.9883C118.477 19.7278 118.615 20.5471 118.615 21.4462ZM115.309 21.4462C115.309 20.4456 115.106 19.6626 114.7 19.0971C114.308 18.5171 113.742 18.2271 113.003 18.2271C112.263 18.2271 111.691 18.5171 111.285 19.0971C110.879 19.6626 110.676 20.4456 110.676 21.4462C110.676 22.4467 110.879 23.2442 111.285 23.8387C111.691 24.4187 112.263 24.7087 113.003 24.7087C113.742 24.7087 114.308 24.4187 114.7 23.8387C115.106 23.2442 115.309 22.4467 115.309 21.4462Z" fill="white"/>
<path d="M121.125 16.139C121.676 15.9795 122.387 15.8345 123.257 15.704C124.127 15.559 125.04 15.4865 125.997 15.4865C126.969 15.4865 127.774 15.617 128.412 15.878C129.064 16.1245 129.579 16.4798 129.956 16.9438C130.333 17.4078 130.601 17.9588 130.761 18.5968C130.92 19.2348 131 19.9454 131 20.7284V27.1883H127.759V21.1199C127.759 20.0759 127.621 19.3363 127.346 18.9013C127.07 18.4663 126.556 18.2488 125.802 18.2488C125.57 18.2488 125.323 18.2633 125.062 18.2923C124.801 18.3068 124.569 18.3286 124.366 18.3576V27.1883H121.125V16.139Z" fill="white"/>
<defs>
<linearGradient id="paint0_linear" x1="19.9878" y1="6.09131" x2="19.9878" y2="33.2796" gradientUnits="userSpaceOnUse">
<stop stop-color="#F473B3"/>
<stop offset="1" stop-color="#CC77DD"/>
</linearGradient>
<linearGradient id="paint1_linear" x1="19.9875" y1="6.09106" x2="19.9875" y2="33.2794" gradientUnits="userSpaceOnUse">
<stop stop-color="#F473B3"/>
<stop offset="1" stop-color="#CC77DD"/>
</linearGradient>
</defs>
</svg>
